<svg xmlns="http://www.w3.org/2000/svg" width="100" height="100"><g data-name="twitter circle" transform="translate(-126.444 -2.281)"><circle cx="50" cy="50" r="50" fill="#2daae1" data-name="Ellipse 1" transform="translate(126.444 2.281)"/><path fill="#fff" d="M209.209 31.905a26.538 26.538 0 0 1-7.7 2.133 13.558 13.558 0 0 0 5.893-7.492 26.6 26.6 0 0 1-8.512 3.287 13.316 13.316 0 0 0-9.782-4.275 13.471 13.471 0 0 0-13.4 13.543 13.837 13.837 0 0 0 .345 3.087 37.921 37.921 0 0 1-27.622-14.15 13.651 13.651 0 0 0 4.147 18.08 13.234 13.234 0 0 1-6.071-1.693v.171a13.514 13.514 0 0 0 10.75 13.278 13.2 13.2 0 0 1-3.531.475 13.462 13.462 0 0 1-2.523-.238 13.436 13.436 0 0 0 12.517 9.4 26.753 26.753 0 0 1-19.841 5.606 37.637 37.637 0 0 0 20.542 6.087c24.648 0 38.129-20.636 38.129-38.532q0-.881-.041-1.752a27.467 27.467 0 0 0 6.7-7.02Z" data-name="Path 1"/></g></svg>